<svg width="24" height="25" viewBox="0 0 24 25" fill="none" xmlns="http://www.w3.org/2000/svg">
<path d="M22.3925 10.4694L23.6125 11.6895C24.1292 12.2061 24.1292 13.0414 23.6125 13.5526L12.9343 24.2363C12.4177 24.7529 11.5823 24.7529 11.0712 24.2363L0.387451 13.5526C-0.12915 13.036 -0.12915 12.2006 0.387451 11.6895L1.60751 10.4694C2.12961 9.94733 2.98145 9.95832 3.49256 10.4914L9.80169 17.1138V1.31898C9.80169 0.588047 10.3897 0 11.1207 0H12.8793C13.6103 0 14.1983 0.588047 14.1983 1.31898V17.1138L20.5074 10.4914C21.0185 9.95283 21.8704 9.94184 22.3925 10.4694Z" fill="white"/>
</svg>
